<svg xmlns="http://www.w3.org/2000/svg" viewBox="0 0 640 480" fill="none">
  <defs>
    <linearGradient id="bg" x1="0" y1="0" x2="640" y2="480">
      <stop offset="0%" stop-color="#FFF3E0"/>
      <stop offset="50%" stop-color="#FFE0B2"/>
      <stop offset="100%" stop-color="#FFCC80"/>
    </linearGradient>
    <linearGradient id="building" x1="200" y1="100" x2="440" y2="400">
      <stop offset="0%" stop-color="#FF9800"/>
      <stop offset="100%" stop-color="#F57C00"/>
    </linearGradient>
  </defs>
  <rect width="640" height="480" fill="url(#bg)"/>
  <rect x="160" y="120" width="320" height="280" rx="8" fill="url(#building)" opacity="0.9"/>
  <rect x="180" y="150" width="60" height="50" rx="4" fill="#FFF3E0" opacity="0.9"/>
  <rect x="260" y="150" width="60" height="50" rx="4" fill="#FFF3E0" opacity="0.9"/>
  <rect x="340" y="150" width="60" height="50" rx="4" fill="#FFF3E0" opacity="0.9"/>
  <rect x="420" y="150" width="40" height="50" rx="4" fill="#FFF3E0" opacity="0.9"/>
  <rect x="180" y="220" width="60" height="50" rx="4" fill="#FFF3E0" opacity="0.8"/>
  <rect x="260" y="220" width="60" height="50" rx="4" fill="#FFF3E0" opacity="0.8"/>
  <rect x="340" y="220" width="60" height="50" rx="4" fill="#FFF3E0" opacity="0.8"/>
  <rect x="420" y="220" width="40" height="50" rx="4" fill="#FFF3E0" opacity="0.8"/>
  <rect x="180" y="290" width="60" height="50" rx="4" fill="#FFF3E0" opacity="0.7"/>
  <rect x="260" y="290" width="60" height="50" rx="4" fill="#FFF3E0" opacity="0.7"/>
  <rect x="340" y="290" width="60" height="50" rx="4" fill="#FFF3E0" opacity="0.7"/>
  <rect x="290" y="350" width="60" height="50" rx="4" fill="#E65100"/>
  <circle cx="520" cy="80" r="50" fill="#FFB74D" opacity="0.6"/>
  <text x="320" y="440" text-anchor="middle" fill="#212121" font-family="Georgia, serif" font-size="18" font-weight="bold">Mathi's Nest Ladies Hostel</text>
  <text x="320" y="462" text-anchor="middle" fill="#5D5D5D" font-family="sans-serif" font-size="12">Race Course Road, Trichy</text>
</svg>
